0
SECTION
2
HEADER
9
$INSUNITS
70
4
9
$ACADVER
1
AC1014
9
$HANDSEED
5
FFFF
0
ENDSEC
0
SECTION
2
TABLES
0
TABLE
2
VPORT
5
8
100
AcDbSymbolTable
0
ENDTAB
0
TABLE
2
LTYPE
5
5
100
AcDbSymbolTable
0
LTYPE
5
14
100
AcDbSymbolTableRecord
100
AcDbLinetypeTableRecord
2
BYBLOCK
70
0
0
LTYPE
5
15
100
AcDbSymbolTableRecord
100
AcDbLinetypeTableRecord
2
BYLAYER
70
0
0
ENDTAB
0
TABLE
2
LAYER
5
2
100
AcDbSymbolTable
70
2
0
LAYER
5
50
100
AcDbSymbolTableRecord
100
AcDbLayerTableRecord
2
0
70
0
6
CONTINUOUS
0
ENDTAB
0
TABLE
2
STYLE
5
3
100
AcDbSymbolTable
70
1
0
STYLE
5
11
100
AcDbSymbolTableRecord
100
AcDbTextStyleTableRecord
2
STANDARD
70
0
0
ENDTAB
0
TABLE
2
VIEW
5
6
100
AcDbSymbolTable
70
0
0
ENDTAB
0
TABLE
2
UCS
5
7
100
AcDbSymbolTable
70
0
0
ENDTAB
0
TABLE
2
APPID
5
9
100
AcDbSymbolTable
70
2
0
APPID
5
12
100
AcDbSymbolTableRecord
100
AcDbRegAppTableRecord
2
ACAD
70
0
0
ENDTAB
0
TABLE
2
DIMSTYLE
5
A
100
AcDbSymbolTable
70
1
0
ENDTAB
0
TABLE
2
BLOCK_RECORD
5
1
100
AcDbSymbolTable
70
1
0
BLOCK_RECORD
5
1F
100
AcDbSymbolTableRecord
100
AcDbBlockTableRecord
2
*MODEL_SPACE
0
BLOCK_RECORD
5
1B
100
AcDbSymbolTableRecord
100
AcDbBlockTableRecord
2
*PAPER_SPACE
0
ENDTAB
0
ENDSEC
0
SECTION
2
BLOCKS
0
BLOCK
5
20
100
AcDbEntity
100
AcDbBlockBegin
2
*MODEL_SPACE
0
ENDBLK
5
21
100
AcDbEntity
100
AcDbBlockEnd
0
BLOCK
5
1C
100
AcDbEntity
100
AcDbBlockBegin
2
*PAPER_SPACE
0
ENDBLK
5
1D
100
AcDbEntity
100
AcDbBlockEnd
0
ENDSEC
0
SECTION
2
ENTITIES
0
LWPOLYLINE
5
100
100
AcDbEntity
8
0
100
AcDbPolyline
90
8
70
1
43
0.0
10
-49.755217144596173
20
-9.905922103415568
42
0.23558564926948034
10
-50.201596784993683
20
-9.9097497311088425
42
-0.18956905900901669
10
-57.487177397449614
20
-10.615854882540582
42
0.38058163539148687
10
-58.086072433014948
20
-10.904589128247968
42
0.028832029605141238
10
-58.491855801947864
20
-12.064236645026863
42
0.49848871766197816
10
-58.011183960770438
20
-12.701912282301908
10
-47.89628258348003
20
-12.701912282301826
42
0.59361281563876012
10
-47.475884178772347
20
-11.931236865392256
42
0.13699608989169251
0
LWPOLYLINE
5
101
100
AcDbEntity
8
0
100
AcDbPolyline
90
8
70
1
43
0.0
10
-45.588627838764062
20
-5.6181808888168661
42
0.22789031347326283
10
-46.423282933536001
20
-5.9219704991923869
42
1.7558850262561518
10
-45.966949048437293
20
-7.6250317435961232
42
0.32179486475369939
10
-44.843493209210685
20
-7.2161272586051268
42
0.32179486475378272
10
-43.808110707232125
20
-6.6183488923735201
42
0.32179486475359648
10
-42.892261115895415
20
-5.8498598380689959
42
1.755885026255906
10
-44.1389884752003
20
-4.6031324787640964
42
0.22789031347335906
10
-44.819405542577329
20
-5.1740701890469349
42
0.22789031347319311
0
LWPOLYLINE
5
102
100
AcDbEntity
8
0
100
AcDbPolyline
90
40
70
1
43
0.0
10
-47.267120953964366
20
-14.999999999999991
10
-47.267120953964543
20
-16.49999999999994
42
-0.41421356237299489
10
-47.767120953964479
20
-16.999999999999989
10
-57.71712095396424
20
-17.000000000000043
42
-0.41421356237316137
10
-58.217120953964411
20
-16.500000000000046
10
-58.217120953964496
20
-15.000000000000195
42
0.99999999999999989
10
-59.217120953964439
20
-14.999999999999929
10
-62.24212095396453
20
-15.000000000000195
42
0.99999999999999989
10
-68.010807392123667
20
-14.999999999999982
10
-71.01080739212378
20
-14.999999999999982
10
-71.01080739212378
20
-11.000000000000005
42
0.38366368574849535
10
-71.01080739212378
20
11.000000000000014
10
-71.01080739212378
20
15
10
-67.060651508465128
20
14.999999999999858
42
0.99999999999999989
10
-66.060651508465185
20
15
10
-66.06065150846517
20
17.499999999999897
42
-0.41421356237301177
10
-65.560651508465213
20
17.999999999999993
10
-60.610651508465175
20
17.999999999999908
42
-0.40691801822241552
10
-60.110807408496392
20
17.512485020072756
10
-60.110807408496278
20
12.195891777206961
42
0.44731588011818474
10
-54.776878796926667
20
7.4267174168373531
42
-0.15877102521320788
10
-49.806831851442425
20
5.8303510894687651
42
0.17350786190506984
10
-48.512600558472343
20
5.4552347219802559
42
0.31664616341121465
10
-46.073786045322429
20
7.4065350821223364
42
-0.019670840233602792
10
-45.824866763130956
20
8.1526366038010476
42
0.016017213320129096
10
-45.429978889306994
20
9.3080750002120638
42
0.074459064465263569
10
-45.210651508465531
20
10.772714651602762
10
-45.210651508465318
20
17.499999999999964
42
-0.41421356237308721
10
-44.710651508465276
20
17.999999999999993
10
-39.760651508465372
20
18.000000000000043
42
-0.40691801822161988
10
-39.260807408496511
20
17.512485020074141
10
-39.260807408496277
20
14.99999999999984
42
0.99999999999999989
10
-38.260651508465315
20
14.999999999999982
10
-34.310807424869267
20
14.999999999999982
10
-34.31080742486926
20
11.000000000000005
42
0.38366368574849208
10
-34.310807424869267
20
-10.999999999999996
10
-34.310807424869267
20
-14.999999999999991
10
-37.310807424869381
20
-15.000000000000062
42
0.99999999999999989
10
-43.242120953964331
20
-14.999999999999991
10
-46.267120953964422
20
-14.999999999999849
42
0.99999999999999989
0
LWPOLYLINE
5
103
100
AcDbEntity
8
0
100
AcDbPolyline
90
10
70
1
43
0.0
10
-50.808110707232288
20
-6.6183488923736569
42
0.32179486475372876
10
-49.892261115895444
20
-5.8498598380690492
42
1.755885026255906
10
-51.138988475200335
20
-4.603132478764115
42
0.22789031347341068
10
-51.81940554257735
20
-5.174070189046887
42
0.22789031347328922
10
-52.588627838763955
20
-5.6181808888170526
42
0.22789031347327543
10
-53.423282933536022
20
-5.9219704991924891
42
0.22789031347333616
10
-54.298010254194338
20
-6.0762085265872727
42
1.7558850262557801
10
-54.144342587732851
20
-7.8326379914858641
42
0.32179486475365576
10
-52.966949048437186
20
-7.6250317435962236
42
0.32179486475369012
10
-51.84349320921072
20
-7.2161272586052041
42
0.32179486475371849
0
LWPOLYLINE
5
104
100
AcDbEntity
8
0
100
AcDbPolyline
90
8
70
1
43
0.0
10
-58.017508738426493
20
2.9034551592717541
42
0.22789031347328501
10
-57.289920363212019
20
3.4129180243106894
42
0.2278903134733184
10
-56.484918392196171
20
3.7882966082252119
42
1.7558850262557602
10
-57.087947356791915
20
5.4451050717290475
42
0.32179486475369362
10
-58.171489733267379
20
4.9398409636430154
42
0.32179486475374419
10
-59.150832474727927
20
4.2540977935813835
42
0.32179486475387187
10
-59.996218747545811
20
3.4087115207634606
42
1.7558850262557011
10
-58.645576113236181
20
2.2753877844620356
42
0.22789031347325114
0
LWPOLYLINE
5
105
100
AcDbEntity
8
0
100
AcDbPolyline
90
4
70
1
43
0.0
10
-60.331643961426664
20
-6.5827620895979422
42
-0.99999999999999989
10
-61.88821998882154
20
-8.1374553297421937
42
-0.3989010677494359
10
-62.245157132478738
20
5.7612460466955877
42
-1.0000008581765991
10
-60.61083368411758
20
4.2884979806108001
42
0.39890099849856742
0
CIRCLE
5
106
100
AcDbEntity
8
0
100
AcDbCircle
10
-54.742120953964388
20
-1.0000000000000142
30
0
40
1.1000000000000032
210
0
220
0
230
1
0
CIRCLE
5
107
100
AcDbEntity
8
0
100
AcDbCircle
10
-47.74212095396436
20
-1.0000000000000142
30
-1.1102230246251563e-15
40
1.1000000000000032
210
0
220
0
230
1
0
ENDSEC
0
SECTION
2
OBJECTS
0
DICTIONARY
5
C
100
AcDbDictionary
3
ACAD_GROUP
350
D
3
ACAD_MLINESTYLE
350
17
0
DICTIONARY
5
D
100
AcDbDictionary
0
DICTIONARY
5
1A
330
C
100
AcDbDictionary
0
DICTIONARY
5
17
100
AcDbDictionary
0
ENDSEC
0
EOF
